<?xml version="1.0" encoding="UTF-8" standalone="no"?> <svg width="512" height="512" viewBox="0 0 512 512" fill="none" xmlns="http://www.w3.org/2000/svg">
<path fill-rule="evenodd" clip-rule="evenodd" d="M128 32C74.9807 32 32 74.9807 32 128V384C32 437.019 74.9807 480 128 480H384C437.019 480 480 437.019 480 384V128C480 74.9807 437.019 32 384 32H128ZM204 128C204 116.954 195.046 108 184 108C172.954 108 164 116.954 164 128V368C164 387.882 180.118 404 200 404H352C363.046 404 372 395.046 372 384C372 372.954 363.046 364 352 364H204V128Z" fill="black"/>
</svg>
