<svg id="eEyTVBuU4Kv1" xmlns="http://www.w3.org/2000/svg" xmlns:xlink="http://www.w3.org/1999/xlink" viewBox="0 0 155 41" shape-rendering="geometricPrecision" text-rendering="geometricPrecision"><path d="M13.97578,9.53949c0,6.22758-6.82964,16.57007-5.79998,22.23325.23074,1.26908,12.53479,1.58085,13.53328.725c5.45098-4.67227-5.603078-5.194522-5.79998-6.52497-.92127-6.22492,5.12632-12.903377,4.59165-13.04995-.259354-.071099-6.47697-2.59079-7.24997-2.89999" transform="translate(.000001 0.000001)" fill="none" stroke="#3f5787" stroke-width="0.5"/><path d="M28.47573,10.98949c-.32222.40278-.73599.74698-.96666,1.20833-2.01799,4.03598,3.65328,3.26776,3.86665,6.04164.36837,4.78876-6.55432,12.75203,0,13.04995c1.18061.05366,6.95421.92338,7.7333.24167.32895-.28783-1.93333-9.67858-1.93333-10.87496c0-4.79615,8.46235-9.41767,6.04164-13.77495-1.33862-2.40951-8.97355,5.42551-9.90829,5.07498-1.26147-.47305-1.52711-5.18707-2.17499-5.31664-2.10576-.42115-4.06881,6.07127-2.17499,7.49164" transform="translate(.000001 0.000001)" fill="none" stroke="#3f5787" stroke-width="0.5"/><path d="M59.40894,11.23115C47.13732,12.98424,46.0588,36.578107,64.72559,29.83941c8.870658-3.202301,10.397898-20.875945.48333-21.74991-8.361486-.737062-14.32504,5.85805-11.35829,14.01661c2.69531,7.41209,22.12633-5.21441,10.39163-9.90829-1.92361-.76944-3.29177-.725-5.31665-.725" transform="translate(.000001 0)" fill="none" stroke="#3f5787" stroke-width="0.5"/><path d="M70.76723,25.24776c3.8227,3.8227-2.89999,8.14285-2.89999,1.44999" transform="translate(.000001 0.000001)" fill="none" stroke="#3f5787" stroke-width="0.5"/><path d="M95.90046,10.02282c-9.28188,0-17.41839-1.48389-20.05826,7.49164-.58995,2.00583-3.24147,8.83341-.24166,10.63329c2.1886,1.31316,21.50825,1.76394,21.50825,0c0-7.06537-22.85373,1.59803-15.94994-9.90829c4.26916-7.11527,15.94994,1.64767,15.94994-7.24997" fill="none" stroke="#3f5787" stroke-width="0.5"/><path d="M115.71705,8.57283c-4.88955.48896-14.05494,1.98334-12.56662,9.42496.09212.46059.32668.95938.725,1.20833c6.50931,4.06832,2.92421-9.07753,8.94163-5.31665c5.73598,3.58499-6.04788,12.81452-7.97497,14.74161" fill="none" stroke="#3f5787" stroke-width="0.5"/><path d="M103.3921,29.11442c-3.86579,5.79868,13.76948,4.23188,16.9166,2.65832.42012-.21006.61107-.75264.725-1.20833c1.86695-7.46782-2.87192-2.39326-5.79998-4.83331-.24944-.20786,2.95187-4.2165,3.14165-4.83331c1.18-3.83502,1.2419-7.16604-.24167-10.87496" transform="translate(-.241666-1.208329)" fill="none" stroke="#3f5787" stroke-width="0.5"/><path d="M115.23372,8.57283c.68505.51379,1.32782,1.08615,1.93333,1.69166" fill="none" stroke="#3f5787" stroke-width="0.5"/><path d="M137.70863,9.53949c-3.07903.51317-13.28986,1.61697-11.59995,7.24997.95237,3.17455,6.6319-2.40491,7.7333,1.44999c1.71548,6.00418-5.78922,2.84621-6.28331,5.31665-.16111.80555-1.20146,2.0177-.48333,2.41666.77753.43196,4.62403-.69262,5.31665,0c1.69166,1.69166-5.96348,2.85372-5.07498,5.07498.62108,1.55269,14.220102,1.671199,14.25828-.24167.20581-10.311764-5.4447-23.193998-3.86666-21.26657" transform="translate(0-.275003)" fill="none" stroke="#3f5787" stroke-width="0.5"/></svg>
