 <svg  version="1.0" xmlns="http://www.w3.org/2000/svg"  width="300.000000pt" height="169.000000pt" viewBox="0 0 300.000000 169.000000"  preserveAspectRatio="xMidYMid meet">  <g transform="translate(0.000000,169.000000) scale(0.100000,-0.100000)" fill="#ffffff" stroke="none"> <path d="M2655 1635 c72 -121 153 -366 170 -515 4 -36 20 -117 36 -180 27 -111 54 -249 103 -545 l24 -140 1 717 c1 570 -2 716 -11 713 -10 -4 -12 -132 -10 -602 2 -541 -1 -652 -14 -551 -5 39 -29 180 -51 293 -8 44 -21 103 -30 130 -8 28 -18 97 -23 155 -8 98 -43 256 -71 325 -7 17 -13 32 -14 35 -19 51 -33 82 -56 126 -16 30 -29 60 -29 68 0 11 -27 25 -52 26 -3 0 8 -25 27 -55z"/> <path d="M1886 1613 c11 -59 22 -84 49 -105 14 -11 25 -24 25 -30 0 -9 40 -110 59 -148 5 -8 14 -39 22 -68 9 -39 23 -62 49 -85 19 -17 50 -51 69 -76 34 -45 42 -53 70 -70 10 -6 14 -28 14 -72 l-1 -64 8 55 c4 30 14 70 24 87 25 49 77 104 111 119 29 13 29 13 5 14 l-25 1 23 19 c29 24 115 42 161 34 56 -10 106 -39 145 -86 l36 -42 -17 41 c-10 23 -21 40 -24 37 -3 -2 -21 7 -39 20 -26 18 -36 34 -45 73 -11 49 -11 49 11 45 33 -6 55 -35 61 -79 6 -47 13 -56 13 -17 l1 29 19 -35 c11 -19 19 -43 20 -53 0 -10 4 -16 9 -12 5 3 11 -5 13 -17 2 -13 11 -24 22 -26 15 -3 17 0 11 14 -4 11 -8 25 -9 32 -1 7 -8 18 -14 24 -7 7 -12 16 -12 20 0 5 -9 27 -20 51 -23 48 -78 91 -104 81 -10 -4 -25 1 -36 11 -18 16 -18 16 -15 -2 2 -10 6 -34 9 -54 l4 -37 -66 -4 c-51 -3 -78 1 -121 18 -64 25 -124 40 -102 25 7 -5 11 -13 7 -19 -3 -6 15 -20 40 -33 l46 -22 -38 -34 c-22 -19 -33 -31 -25 -27 9 4 12 3 7 -4 -11 -17 -33 -3 -46 29 -7 16 -22 36 -34 44 -11 8 -17 15 -12 15 5 0 2 8 -7 18 -10 10 -14 22 -10 25 3 4 -1 7 -10 7 -10 0 -14 -5 -11 -15 4 -8 10 -15 15 -15 5 0 9 -4 9 -9 0 -6 15 -35 34 -66 34 -56 34 -57 18 -95 -16 -37 -18 -38 -43 -25 -14 8 -31 21 -39 30 -11 13 -10 15 5 9 10 -4 -2 12 -26 35 -36 34 -40 41 -20 36 16 -5 21 -4 17 4 -4 6 -15 11 -24 11 -45 1 -64 26 -97 126 -44 133 -67 185 -115 251 -22 31 -40 62 -40 69 0 7 -5 16 -11 19 -7 5 -8 -5 -3 -32z"/> <path d="M1612 1562 c5 -19 3 -22 -10 -17 -14 5 -13 3 2 -14 21 -23 46 -111 46 -162 0 -31 -4 -38 -24 -43 -14 -3 -46 -24 -71 -46 -64 -55 -88 -66 -190 -85 -99 -19 -155 -16 -323 16 -57 10 -110 19 -118 19 -12 0 -14 -15 -12 -82 3 -83 3 -83 36 -100 38 -18 72 -47 72 -59 0 -5 -13 -7 -30 -5 -29 3 -30 2 -30 -40 0 -34 6 -48 27 -68 31 -29 109 -48 192 -47 138 1 313 -81 377 -179 30 -46 41 -46 26 -1 -19 53 5 34 48 -38 70 -118 84 -163 84 -278 1 -56 -1 -103 -4 -106 -3 -3 -19 -2 -37 0 -30 5 -31 5 -12 24 26 26 24 49 -5 49 -38 0 -86 -21 -86 -37 0 -12 3 -13 14 -4 8 7 28 16 45 21 25 7 31 6 31 -6 0 -8 -11 -20 -25 -26 -36 -16 -31 -25 18 -33 77 -13 91 -32 65 -90 -10 -23 -16 -25 -79 -25 -37 0 -71 5 -74 10 -4 6 -56 10 -123 10 l-117 0 33 20 c38 24 69 86 54 110 -11 17 -63 21 -69 4 -2 -7 8 -9 27 -6 24 3 30 1 30 -14 -1 -32 -25 -65 -65 -87 -21 -12 -40 -26 -42 -32 -2 -6 45 -9 132 -7 120 3 134 2 129 -12 -5 -14 5 -16 75 -16 75 0 82 2 97 25 11 16 15 40 12 72 -2 37 2 55 19 79 18 25 20 33 9 37 -8 3 -15 30 -19 75 -10 127 -99 304 -163 326 -17 6 -50 27 -75 48 -80 66 -229 118 -339 118 -82 0 -149 19 -167 46 -15 24 -15 27 6 54 27 38 27 53 -5 81 -14 13 -35 32 -45 42 -13 12 -19 31 -19 63 l0 46 38 -4 c20 -3 95 -13 165 -23 131 -18 198 -15 303 16 50 15 128 67 195 130 38 35 38 37 34 97 -3 34 -1 62 3 62 10 0 82 -73 82 -84 0 -18 44 -68 67 -77 54 -20 76 24 75 148 0 48 -5 69 -21 90 l-21 28 5 -65 c3 -36 8 -80 11 -98 3 -19 1 -32 -3 -29 -5 3 -7 -10 -5 -29 4 -32 3 -34 -19 -26 -16 5 -36 31 -57 72 -35 68 -47 86 -37 55 4 -12 -8 -4 -32 21 -21 23 -56 57 -77 75 -37 31 -39 32 -34 11z"/> <path d="M2526 1172 c50 -24 97 -81 88 -108 -4 -14 -3 -15 4 -6 7 10 12 1 21 -32 15 -59 14 -73 -4 -73 -10 0 -15 12 -16 36 -1 36 -1 36 -8 6 -5 -25 -12 -31 -38 -33 -29 -3 -32 -1 -36 30 l-4 33 -1 -36 c-2 -39 -21 -56 -41 -36 -8 8 -11 7 -12 -3 -3 -38 -17 53 -18 119 0 41 -4 71 -8 67 -8 -8 -6 -134 3 -189 5 -34 9 -38 28 -33 11 3 29 6 38 6 9 0 24 7 32 16 10 9 16 11 16 4 0 -8 15 -11 43 -9 l43 4 -3 -75 c-5 -143 -9 -156 -60 -195 -25 -19 -49 -35 -53 -35 -13 0 -95 48 -118 70 -22 20 -77 131 -88 177 -4 13 -10 21 -14 18 -5 -3 -11 7 -13 22 l-4 28 -2 -27 c0 -16 -6 -28 -12 -28 -5 0 -7 -4 -4 -10 8 -13 9 -346 1 -385 -6 -30 -6 -30 6 -5 8 17 12 86 12 208 1 100 2 182 3 182 6 0 31 -69 37 -105 11 -61 17 -76 27 -70 5 4 14 -5 21 -19 8 -19 15 -23 23 -16 9 7 16 6 24 -4 17 -20 12 -200 -6 -245 -16 -37 -63 -92 -73 -86 -4 2 -3 26 1 52 4 26 7 106 7 178 -1 72 -3 114 -5 95 -1 -19 -10 -84 -18 -145 -22 -167 -23 -185 -8 -185 17 0 17 -20 1 -20 -7 0 -22 -13 -33 -28 l-20 -27 26 20 c119 92 202 154 207 157 4 2 20 21 35 43 26 36 26 37 3 13 -29 -32 -46 -20 -23 16 14 20 14 26 1 51 -8 16 -12 35 -10 42 8 20 36 16 36 -5 0 -10 6 -24 13 -32 10 -12 9 -12 -5 -1 -16 12 -18 11 -18 -8 0 -14 6 -21 19 -21 38 0 101 204 101 328 0 189 -58 312 -152 328 -32 5 -32 5 8 -14z m100 -525 c-3 -14 -15 -27 -27 -30 -12 -3 -18 -10 -14 -16 3 -6 1 -11 -4 -11 -6 0 -11 2 -11 4 0 2 -3 12 -6 20 -5 12 -2 15 10 10 10 -4 18 1 22 12 17 46 41 55 30 11z m-124 -21 c4 -6 8 -26 8 -44 0 -22 4 -31 11 -26 8 5 8 1 0 -14 -6 -12 -16 -24 -21 -27 -6 -4 -8 -11 -5 -16 3 -5 -4 -30 -16 -56 -15 -33 -23 -43 -26 -31 -3 10 3 25 11 34 9 8 16 23 16 32 0 15 -2 15 -10 2 -7 -10 -10 14 -10 77 0 84 2 92 18 86 9 -4 20 -11 24 -17z"/> <path d="M2488 1082 c-1 -21 0 -51 3 -67 5 -21 7 -9 8 38 1 73 -5 90 -11 29z"/> <path d="M2406 1039 c-3 -17 -6 -50 -6 -73 0 -26 -3 -36 -9 -28 -7 11 -10 10 -15 -3 -11 -30 -7 -36 22 -29 35 9 40 17 33 57 -4 31 -5 32 -13 7 -5 -16 -6 -2 -3 38 5 67 1 81 -9 31z"/> <path d="M2744 1050 c3 -14 10 -54 16 -90 7 -36 15 -110 19 -165 7 -99 7 -99 12 -35 4 65 -20 236 -40 288 -11 26 -11 26 -7 2z"/> <path d="M2006 888 c-9 -12 -16 -28 -16 -35 0 -27 -60 -52 -109 -46 -39 4 -49 2 -66 -16 -17 -20 -18 -25 -6 -54 7 -18 15 -44 18 -59 3 -18 14 -30 33 -37 23 -8 31 -19 44 -68 31 -109 46 -141 64 -138 9 2 20 4 24 4 3 1 21 13 38 28 26 21 33 24 41 12 6 -9 7 -3 3 19 -7 32 11 47 22 18 3 -8 14 -16 25 -19 15 -4 18 -2 10 7 -22 26 -50 138 -39 155 12 20 -5 92 -27 115 -8 8 -15 18 -15 22 0 4 -6 15 -14 23 -17 21 -29 71 -16 71 5 0 17 -15 26 -32 9 -18 30 -49 45 -69 16 -20 29 -39 29 -43 0 -3 11 -29 24 -58 37 -81 42 -120 17 -142 -12 -11 -21 -23 -21 -28 0 -14 40 16 46 35 3 9 10 14 16 11 17 -11 4 54 -28 132 -23 59 -67 128 -124 196 -19 23 -26 23 -44 -4z m41 -149 c9 -49 12 -54 10 -21 -3 42 6 55 17 26 13 -33 5 -77 -20 -121 -24 -40 -26 -49 -16 -81 6 -20 10 -36 9 -37 -1 0 -19 -13 -40 -29 -21 -15 -39 -26 -40 -25 -7 11 -41 149 -44 179 -5 34 -6 35 -44 32 -25 -3 -39 0 -39 8 0 7 13 10 38 8 l37 -3 5 46 c5 42 4 46 -14 41 -11 -3 -15 -7 -8 -10 21 -7 13 -20 -10 -15 -22 4 -22 3 2 -11 l25 -15 -28 -1 c-34 0 -91 53 -63 58 9 2 13 8 10 14 -5 7 10 9 48 4 39 -5 62 -3 83 8 53 28 69 17 82 -55z"/> <path d="M2545 859 c-10 -15 -5 -16 42 -11 24 2 40 8 37 13 -7 13 -71 11 -79 -2z"/> <path d="M2367 853 c-11 -10 -8 -25 4 -18 6 4 13 -2 16 -14 3 -11 9 -18 14 -15 5 3 9 -2 9 -10 0 -9 7 -16 15 -16 17 0 20 32 5 61 -10 18 -50 26 -63 12z"/> <path d="M2703 726 c-7 -50 -11 -91 -9 -94 7 -6 28 135 24 160 -2 13 -9 -17 -15 -66z"/> <path d="M2734 613 c-4 -12 -17 -29 -30 -38 -22 -14 -24 -14 -24 2 -1 13 -5 10 -16 -10 -9 -17 -21 -26 -29 -23 -7 2 -21 -4 -31 -15 -17 -19 -16 -19 41 1 32 11 63 20 69 19 25 -3 36 2 36 16 0 8 7 15 15 15 16 0 19 9 7 27 -5 8 -12 2 -21 -18 -7 -16 -17 -29 -22 -29 -5 0 -2 14 6 31 9 17 14 34 10 37 -3 3 -8 -4 -11 -15z"/> <path d="M2784 538 c13 -58 17 -82 23 -120 3 -21 9 -36 13 -33 9 6 16 -11 26 -67 3 -21 10 -38 14 -38 4 0 -1 33 -12 73 -11 39 -21 79 -22 87 -4 28 -37 130 -43 130 -3 0 -2 -15 1 -32z"/> <path d="M2216 535 c20 -56 17 -71 -18 -93 -18 -12 -28 -22 -23 -22 6 0 21 7 33 16 22 15 24 15 37 -2 7 -11 12 -32 9 -49 l-4 -30 10 29 c6 21 5 36 -5 57 -8 15 -15 36 -15 46 -1 10 -8 29 -16 43 -10 16 -13 18 -8 5z"/> <path d="M2856 408 c3 -18 8 -40 11 -48 12 -30 13 -101 1 -94 -7 5 -9 -4 -5 -27 4 -19 9 -80 13 -135 6 -92 8 -101 25 -97 21 6 26 23 7 23 -9 0 -8 4 2 10 13 8 13 10 1 10 -11 0 -12 3 -4 11 14 14 7 123 -13 229 -8 41 -17 90 -21 108 -3 18 -9 35 -14 38 -5 3 -6 -10 -3 -28z m38 -249 c3 -47 2 -55 -4 -29 -13 60 -20 127 -10 109 5 -9 11 -45 14 -80z"/> <path d="M2270 395 c0 -2 5 -15 11 -28 9 -20 6 -33 -15 -76 -27 -51 -42 -61 -64 -39 -9 9 -12 9 -12 -3 0 -12 -2 -12 -11 1 -8 12 -9 10 -4 -8 5 -16 0 -28 -17 -42 -31 -26 -38 -25 -38 8 0 21 -2 24 -10 12 -5 -8 -10 -29 -10 -47 0 -44 -10 -69 -21 -51 -6 9 -9 4 -9 -14 0 -30 -35 -78 -56 -78 -7 0 -16 -4 -19 -10 -4 -7 3 -7 19 0 17 6 26 6 26 0 0 -25 17 -5 39 46 13 30 45 77 70 104 53 57 90 69 42 15 -17 -20 -31 -43 -31 -53 1 -10 9 -2 20 20 11 20 36 50 57 67 40 33 80 118 63 135 -6 6 -10 18 -10 28 0 10 -4 18 -10 18 -5 0 -10 -2 -10 -5z"/> <path d="M2671 344 c-1 -46 2 -61 13 -61 8 0 12 6 9 13 -2 6 -8 34 -13 60 l-8 49 -1 -61z"/> <path d="M2727 261 c1 -136 22 -251 44 -251 6 0 6 6 0 18 -11 22 -28 164 -30 260 -1 40 -5 82 -9 92 -4 10 -6 -43 -5 -119z"/> <path d="M2796 320 c4 -25 10 -90 15 -145 l8 -100 -4 120 c-1 66 -8 131 -14 145 -9 21 -10 18 -5 -20z"/> <path d="M693 272 l-62 -59 -6 49 c-4 26 -11 48 -17 48 -9 0 -2 -77 12 -114 6 -16 9 -15 34 14 15 19 39 42 53 53 l26 20 -12 -20 c-6 -12 -26 -34 -45 -50 -30 -24 -35 -34 -36 -78 -1 -27 -1 -54 0 -60 3 -17 18 38 19 71 1 19 11 39 27 55 27 25 84 107 84 121 0 18 -19 5 -77 -50z"/> <path d="M2606 164 c-19 -156 -17 -207 3 -77 14 85 25 223 19 223 -3 0 -12 -66 -22 -146z"/> <path d="M1145 291 c-46 -19 -56 -43 -53 -132 l3 -84 50 0 c48 0 50 1 52 30 1 18 -1 22 -4 10 -8 -31 -19 -38 -52 -30 -31 7 -31 7 -31 75 0 84 5 97 42 116 33 17 48 12 48 -17 0 -10 5 -19 10 -19 11 0 13 20 4 44 -7 17 -36 20 -69 7z"/> <path d="M861 259 c-29 -48 -46 -117 -35 -147 12 -33 51 -40 96 -18 28 15 33 15 49 0 11 -9 19 -11 23 -5 4 5 -3 15 -15 22 -20 10 -21 16 -15 81 7 82 -1 98 -50 98 -28 0 -38 -6 -53 -31z m87 -31 c2 -20 -2 -55 -8 -77 -9 -35 -15 -41 -45 -47 -50 -9 -58 0 -51 59 9 67 39 109 75 105 22 -3 26 -8 29 -40z"/> <path d="M455 214 c-21 -38 -60 -90 -87 -116 -26 -26 -48 -49 -48 -52 0 -3 42 -5 93 -4 l92 2 -78 3 -78 4 48 53 c51 56 107 149 101 168 -2 6 -22 -20 -43 -58z"/> <path d="M2493 140 c-33 -77 -57 -140 -53 -140 10 0 26 21 33 45 18 60 47 130 59 145 12 14 33 90 24 90 -1 0 -30 -63 -63 -140z"/> <path d="M2966 248 c4 -21 10 -61 14 -90 l8 -53 0 55 c0 30 -6 71 -13 90 l-14 35 5 -37z"/> <path d="M1784 219 c4 -30 2 -76 -3 -104 -5 -27 -8 -52 -6 -53 4 -4 46 83 64 131 9 23 8 27 -9 27 -11 0 -20 8 -22 22 -2 12 -9 23 -17 26 -11 4 -12 -6 -7 -49z"/> <path d="M2349 198 c-7 -17 -12 -47 -12 -66 1 -21 -2 -30 -7 -22 -5 8 -15 -7 -29 -45 -12 -32 -19 -60 -17 -63 3 -3 8 4 12 14 3 10 12 35 19 54 l14 35 2 -50 c1 -43 3 -37 13 40 7 50 16 100 20 113 11 33 0 27 -15 -10z"/> <path d="M1866 115 c4 -61 8 -111 9 -113 6 -8 33 11 30 21 -2 7 -6 45 -10 86 -3 41 -13 84 -21 95 -12 18 -13 8 -8 -89z"/> <path d="M2941 78 c0 -40 3 -68 9 -68 12 0 12 27 1 90 -8 44 -9 44 -10 -22z"/> </g> </svg> 